<svg id="b142c218-c3ca-487e-979b-dffd11e3a76c" xmlns="http://www.w3.org/2000/svg" viewBox="0 0 326 234"><defs><style>.cls-1{fill:#3f3d56;}.cls-2{fill:#e6e6e6;}.cls-3{fill:#6c63ff;}</style></defs><path class="cls-1" d="M308.5,264.08H17.5A17.52,17.52,0,0,1,0,246.58v-174a17.52,17.52,0,0,1,17.5-17.5h291A17.52,17.52,0,0,1,326,72.58v174A17.52,17.52,0,0,1,308.5,264.08Zm-291-206A14.52,14.52,0,0,0,3,72.58v174a14.52,14.52,0,0,0,14.5,14.5h291a14.52,14.52,0,0,0,14.5-14.5v-174a14.52,14.52,0,0,0-14.5-14.5Z" transform="translate(0 -30.08)"/><path class="cls-1" d="M56.5,96.08A12.5,12.5,0,1,1,69,83.58,12.5,12.5,0,0,1,56.5,96.08Zm0-22a9.5,9.5,0,1,0,9.5,9.5h0A9.52,9.52,0,0,0,56.5,74.08Z" transform="translate(0 -30.08)"/><path class="cls-1" d="M267.5,96.08A12.5,12.5,0,1,1,280,83.58,12.5,12.5,0,0,1,267.5,96.08Zm0-22a9.5,9.5,0,1,0,9.5,9.5h0A9.52,9.52,0,0,0,267.5,74.08Z" transform="translate(0 -30.08)"/><path class="cls-2" d="M86,172.08H32a8.51,8.51,0,0,1-8.5-8.5v-32a8.52,8.52,0,0,1,8.5-8.5H86a8.52,8.52,0,0,1,8.5,8.5v32A8.51,8.51,0,0,1,86,172.08Z" transform="translate(0 -30.08)"/><path class="cls-2" d="M190,172.08H136a8.51,8.51,0,0,1-8.5-8.5v-32a8.52,8.52,0,0,1,8.5-8.5h54a8.52,8.52,0,0,1,8.5,8.5v32A8.51,8.51,0,0,1,190,172.08Z" transform="translate(0 -30.08)"/><path class="cls-2" d="M240,124.08a7.51,7.51,0,0,0-7.5,7.5v32a7.5,7.5,0,0,0,7.5,7.5h54a7.5,7.5,0,0,0,7.5-7.5v-32a7.51,7.51,0,0,0-7.5-7.5Z" transform="translate(0 -30.08)"/><path class="cls-2" d="M86.5,236.08h-54a8.51,8.51,0,0,1-8.5-8.5v-32a8.52,8.52,0,0,1,8.5-8.5h54a8.52,8.52,0,0,1,8.5,8.5v32A8.51,8.51,0,0,1,86.5,236.08Z" transform="translate(0 -30.08)"/><path class="cls-2" d="M190.5,236.08h-54a8.51,8.51,0,0,1-8.5-8.5v-32a8.52,8.52,0,0,1,8.5-8.5h54a8.52,8.52,0,0,1,8.5,8.5v32A8.51,8.51,0,0,1,190.5,236.08Z" transform="translate(0 -30.08)"/><path class="cls-2" d="M294.5,236.08h-54a8.51,8.51,0,0,1-8.5-8.5v-32a8.52,8.52,0,0,1,8.5-8.5h54a8.52,8.52,0,0,1,8.5,8.5v32A8.51,8.51,0,0,1,294.5,236.08Z" transform="translate(0 -30.08)"/><path class="cls-1" d="M56.5,87.08a3.5,3.5,0,0,1-3.5-3.5v-50a3.5,3.5,0,0,1,7,0v50A3.5,3.5,0,0,1,56.5,87.08Z" transform="translate(0 -30.08)"/><path class="cls-1" d="M267.5,87.08a3.5,3.5,0,0,1-3.5-3.5v-50a3.5,3.5,0,1,1,7,0v50A3.5,3.5,0,0,1,267.5,87.08Z" transform="translate(0 -30.08)"/><path id="b5e0804e-c461-433c-b77b-73087ef71cb0" class="cls-3" d="M57,160.55a6.73,6.73,0,0,1-4.08-1.35l-.08-.06L37.42,147.38a6.84,6.84,0,0,1,8.32-10.85l10,7.64,23.54-30.71a6.83,6.83,0,0,1,9.58-1.27h0l-.14.2.15-.2a6.84,6.84,0,0,1,1.26,9.58L62.4,157.88A6.85,6.85,0,0,1,57,160.55Z" transform="translate(0 -30.08)"/><path id="b3a0cc8c-ec19-4bca-9f18-6cf478ced8d1" class="cls-3" d="M164,223.55a6.73,6.73,0,0,1-4.08-1.35l-.08-.06-15.38-11.76a6.84,6.84,0,0,1,8.32-10.85l10,7.64,23.54-30.71a6.83,6.83,0,0,1,9.58-1.27h0l-.14.2.15-.2a6.84,6.84,0,0,1,1.26,9.58L169.4,220.88a6.85,6.85,0,0,1-5.44,2.67Z" transform="translate(0 -30.08)"/><path id="b29a902b-cd84-4f58-97ad-17c408cf2b06" class="cls-3" d="M265,160.55a6.73,6.73,0,0,1-4.08-1.35l-.08-.06-15.38-11.76a6.84,6.84,0,0,1,8.32-10.85l10,7.64,23.54-30.71a6.83,6.83,0,0,1,9.58-1.27h0l-.14.2.15-.2a6.84,6.84,0,0,1,1.26,9.58L270.4,157.88a6.85,6.85,0,0,1-5.44,2.67Z" transform="translate(0 -30.08)"/></svg>